<?xml version="1.0" standalone="no"?>
<!DOCTYPE svg PUBLIC "-//W3C//DTD SVG 20010904//EN"
 "http://www.w3.org/TR/2001/REC-SVG-20010904/DTD/svg10.dtd">
<svg version="1.0" xmlns="http://www.w3.org/2000/svg"
 width="512.000000pt" height="512.000000pt" viewBox="0 0 512.000000 512.000000"
 preserveAspectRatio="xMidYMid meet">
<metadata>
Created by potrace 1.14, written by Peter Selinger 2001-2017
</metadata>
<g transform="translate(0.000000,512.000000) scale(0.100000,-0.100000)"
fill="#000000" stroke="none">
<path d="M1995 5113 c-15 -3 -105 -24 -165 -38 -8 -3 -63 -25 -100 -43 -118
-54 -256 -181 -318 -291 -20 -36 -47 -101 -59 -145 -23 -78 -23 -82 -23 -699
l0 -622 33 40 c52 65 147 151 227 209 68 49 270 161 270 150 0 -2 12 2 28 10
15 7 71 26 124 42 l97 27 0 683 0 682 -47 -1 c-26 -1 -56 -2 -67 -4z"/>
<path d="M2488 3715 c-2 -1 -37 -6 -78 -9 -41 -4 -95 -12 -120 -17 -25 -6 -56
-12 -70 -14 -14 -2 -56 -14 -95 -25 -38 -12 -80 -24 -93 -27 -12 -3 -25 -9
-28 -14 -3 -5 -13 -9 -21 -9 -22 0 -283 -131 -283 -141 0 -5 -4 -9 -10 -9 -9
0 -106 -64 -120 -80 -3 -3 -27 -23 -55 -45 -74 -58 -198 -188 -261 -272 -66
-87 -184 -284 -184 -306 0 -8 -4 -17 -8 -19 -8 -3 -60 -130 -66 -161 -2 -6 -8
-23 -13 -37 -6 -14 -16 -51 -23 -82 -7 -32 -17 -55 -22 -52 -10 7 -165 7 -188
1 -59 -16 -121 -74 -140 -131 -14 -43 -18 -308 -5 -366 11 -50 51 -102 99
-126 32 -17 61 -22 138 -23 107 -2 140 8 193 57 54 49 58 70 60 277 2 171 5
201 30 300 70 281 197 506 400 710 95 96 203 185 224 185 5 0 11 4 13 8 7 18
248 149 248 135 0 -3 6 -1 13 5 29 23 245 85 345 98 90 12 114 14 227 14 141
0 183 -4 295 -25 63 -12 217 -57 255 -75 11 -5 51 -23 88 -39 74 -33 190 -100
195 -113 2 -4 8 -8 14 -8 9 0 47 -27 108 -75 25 -20 205 -201 227 -228 36 -45
125 -181 155 -238 52 -98 130 -305 129 -344 0 -2 5 -19 10 -37 19 -64 22 -105
23 -278 1 -160 3 -179 24 -221 27 -56 27 -82 1 -184 -11 -44 -22 -87 -24 -95
-10 -45 -42 -126 -86 -217 -27 -57 -49 -105 -49 -108 0 -3 -5 -11 -10 -18 -6
-7 -31 -43 -56 -82 -100 -150 -225 -280 -395 -407 -49 -37 -60 -37 -96 0 -49
50 -70 45 -244 -64 -85 -52 -164 -106 -176 -120 -34 -37 -24 -89 37 -179 53
-78 73 -95 114 -95 32 0 339 193 361 227 10 15 15 37 13 55 -4 26 1 34 36 59
23 16 46 33 53 39 7 5 14 10 17 10 18 0 234 211 301 295 142 177 266 425 316
635 7 30 14 57 14 60 1 3 5 22 9 43 l8 37 82 0 c44 -1 95 3 113 9 36 11 103
68 103 88 0 7 4 13 9 13 16 0 24 80 22 225 -1 123 -4 174 -11 183 -2 1 -3 7
-4 12 -3 23 -60 81 -97 101 -33 16 -59 20 -134 20 -103 -1 -108 2 -120 64 -8
49 -76 231 -113 305 -114 230 -281 435 -488 596 -45 35 -87 64 -93 64 -6 0
-11 5 -11 10 0 6 -6 10 -14 10 -8 0 -16 4 -18 9 -3 10 -220 124 -253 133 -11
4 -51 17 -90 31 -161 59 -319 87 -517 92 -75 2 -138 2 -140 0z"/>
<path d="M2455 3400 c-27 -4 -71 -10 -97 -14 -95 -13 -313 -84 -349 -113 -8
-7 -21 -13 -27 -13 -14 0 -177 -99 -209 -127 -12 -11 -34 -28 -48 -39 -32 -22
-159 -148 -193 -190 -74 -91 -209 -321 -216 -368 -1 -6 -4 -15 -7 -21 -7 -10
-29 -77 -33 -98 -2 -7 -6 -19 -9 -27 -9 -25 -26 -102 -32 -150 -3 -25 -8 -61
-10 -80 -6 -43 -7 -228 -1 -255 2 -11 7 -47 10 -80 10 -87 48 -227 86 -320 26
-62 75 -160 83 -163 4 -2 7 -8 7 -13 0 -10 66 -111 99 -152 47 -59 143 -158
196 -202 33 -27 61 -53 63 -57 2 -5 8 -8 13 -8 5 0 28 -15 52 -33 85 -65 325
-172 430 -193 10 -2 26 -6 35 -8 17 -6 47 -10 159 -24 164 -21 394 4 582 63
124 39 383 180 399 217 2 5 8 8 13 8 6 0 20 10 33 23 13 12 46 43 72 68 27 25
66 65 86 90 21 24 44 51 51 59 26 29 99 145 132 210 114 226 155 408 150 665
-2 88 -6 171 -10 185 -3 14 -9 40 -12 59 -4 27 -27 115 -47 176 -42 132 -144
313 -245 435 -46 54 -172 178 -195 192 -15 9 -19 -769 -4 -778 5 -4 39 -6 74
-6 73 0 159 -20 216 -49 42 -21 51 -34 16 -23 -27 8 -209 8 -258 -1 -19 -3
-39 -11 -45 -16 -6 -6 -10 -85 -11 -192 -1 -238 -11 -301 -65 -427 -47 -112
-88 -169 -190 -270 -83 -82 -188 -148 -296 -185 -88 -30 -118 -36 -235 -42
-224 -12 -437 69 -598 227 -215 211 -293 467 -235 773 3 15 17 58 31 95 14 37
28 75 31 85 3 9 9 17 14 17 5 0 9 6 9 14 0 34 190 256 219 256 5 0 14 7 21 15
12 15 115 77 135 82 6 1 42 13 80 26 39 14 89 29 113 35 65 15 277 7 342 -12
30 -9 63 -18 73 -21 14 -3 78 -33 177 -82 10 -6 6 692 -5 700 -5 4 -28 12 -50
19 -22 6 -44 13 -50 14 -19 6 -100 24 -130 29 -16 3 -46 8 -65 12 -50 9 -266
11 -325 3z"/>
<path d="M2550 2368 c-65 -15 -110 -31 -110 -39 0 -4 -10 -9 -23 -12 -35 -9
-129 -99 -164 -158 -154 -258 -11 -595 282 -664 277 -66 552 156 541 437 -4
96 -18 132 -49 123 -36 -11 -136 -74 -222 -139 -80 -60 -99 -76 -184 -153
l-46 -43 -24 28 c-13 15 -59 65 -102 112 -42 47 -87 96 -98 109 l-21 24 67 52
67 52 68 -69 c71 -71 75 -73 108 -38 7 8 107 72 165 106 57 33 152 74 172 74
20 0 16 14 -15 53 -56 70 -147 128 -223 142 -58 11 -151 12 -189 3z"/>
</g>
</svg>
